<mxfile host="app.diagrams.net" modified="2021-09-10T12:23:36.341Z" agent="5.0 (Windows NT 10.0; Win64; x64) AppleWebKit/537.36 (KHTML, like Gecko) Chrome/93.0.4577.63 Safari/537.36" etag="9RVzkXbt--yXmGHMVBaX" version="15.1.4" type="github">
  <diagram name="Page-1" id="e7e014a7-5840-1c2e-5031-d8a46d1fe8dd">
    <mxGraphModel dx="1570" dy="970" grid="1" gridSize="10" guides="1" tooltips="1" connect="1" arrows="1" fold="1" page="1" pageScale="1" pageWidth="1169" pageHeight="826" background="none" math="0" shadow="0">
      <root>
        <mxCell id="0" />
        <mxCell id="1" parent="0" />
        <mxCell id="j9lvFV2EmUe2_3ZarSQt-80" value="" style="rounded=0;whiteSpace=wrap;html=1;fontSize=13;fillColor=#e1d5e7;strokeColor=#9673a6;" vertex="1" parent="1">
          <mxGeometry x="130" y="280" width="500" height="270" as="geometry" />
        </mxCell>
        <mxCell id="j9lvFV2EmUe2_3ZarSQt-58" value="" style="rounded=0;whiteSpace=wrap;html=1;fillColor=#fff2cc;strokeColor=#d6b656;" vertex="1" parent="1">
          <mxGeometry x="80" y="30" width="580" height="610" as="geometry" />
        </mxCell>
        <mxCell id="j9lvFV2EmUe2_3ZarSQt-82" style="edgeStyle=orthogonalEdgeStyle;rounded=0;orthogonalLoop=1;jettySize=auto;html=1;exitX=0.5;exitY=1;exitDx=0;exitDy=0;fontSize=13;" edge="1" parent="1" source="j9lvFV2EmUe2_3ZarSQt-43" target="j9lvFV2EmUe2_3ZarSQt-81">
          <mxGeometry relative="1" as="geometry" />
        </mxCell>
        <mxCell id="j9lvFV2EmUe2_3ZarSQt-43" value="Plug &amp; Play" style="swimlane;" vertex="1" parent="1">
          <mxGeometry x="100" y="50" width="200" height="170" as="geometry" />
        </mxCell>
        <mxCell id="j9lvFV2EmUe2_3ZarSQt-48" value="User Feature" style="rounded=0;whiteSpace=wrap;html=1;fontStyle=1;fontSize=14;" vertex="1" parent="j9lvFV2EmUe2_3ZarSQt-43">
          <mxGeometry y="40" width="200" height="40" as="geometry" />
        </mxCell>
        <mxCell id="j9lvFV2EmUe2_3ZarSQt-83" style="edgeStyle=orthogonalEdgeStyle;rounded=0;orthogonalLoop=1;jettySize=auto;html=1;exitX=0.5;exitY=1;exitDx=0;exitDy=0;fontSize=13;entryX=0.5;entryY=0;entryDx=0;entryDy=0;" edge="1" parent="1" source="j9lvFV2EmUe2_3ZarSQt-44" target="j9lvFV2EmUe2_3ZarSQt-81">
          <mxGeometry relative="1" as="geometry">
            <mxPoint x="380.0000000000002" y="280" as="targetPoint" />
          </mxGeometry>
        </mxCell>
        <mxCell id="j9lvFV2EmUe2_3ZarSQt-44" value="OTC" style="swimlane;" vertex="1" parent="1">
          <mxGeometry x="440" y="50" width="200" height="170" as="geometry" />
        </mxCell>
        <mxCell id="j9lvFV2EmUe2_3ZarSQt-50" value="User Feature" style="rounded=0;whiteSpace=wrap;html=1;fontStyle=1;fontSize=14;" vertex="1" parent="j9lvFV2EmUe2_3ZarSQt-44">
          <mxGeometry y="40" width="200" height="40" as="geometry" />
        </mxCell>
        <mxCell id="j9lvFV2EmUe2_3ZarSQt-49" value="RFQ Feature" style="rounded=0;whiteSpace=wrap;html=1;fontStyle=1;fontSize=14;" vertex="1" parent="1">
          <mxGeometry x="100" y="150" width="200" height="40" as="geometry" />
        </mxCell>
        <mxCell id="j9lvFV2EmUe2_3ZarSQt-51" value="RFQ Feature" style="rounded=0;whiteSpace=wrap;html=1;fontStyle=1;fontSize=14;" vertex="1" parent="1">
          <mxGeometry x="440" y="150" width="200" height="40" as="geometry" />
        </mxCell>
        <mxCell id="j9lvFV2EmUe2_3ZarSQt-59" value="Same logic&lt;br&gt;Same database&lt;br&gt;Same integrations" style="text;html=1;strokeColor=none;fillColor=none;align=center;verticalAlign=middle;whiteSpace=wrap;rounded=0;fontStyle=1" vertex="1" parent="1">
          <mxGeometry x="310" y="100" width="130" height="50" as="geometry" />
        </mxCell>
        <mxCell id="j9lvFV2EmUe2_3ZarSQt-60" value="" style="rounded=0;whiteSpace=wrap;html=1;fillColor=#dae8fc;strokeColor=#6c8ebf;" vertex="1" parent="1">
          <mxGeometry x="670" y="30" width="580" height="610" as="geometry" />
        </mxCell>
        <mxCell id="j9lvFV2EmUe2_3ZarSQt-85" style="edgeStyle=orthogonalEdgeStyle;rounded=0;orthogonalLoop=1;jettySize=auto;html=1;exitX=0.5;exitY=1;exitDx=0;exitDy=0;entryX=0.126;entryY=0;entryDx=0;entryDy=0;entryPerimeter=0;fontSize=13;" edge="1" parent="1" source="j9lvFV2EmUe2_3ZarSQt-62" target="j9lvFV2EmUe2_3ZarSQt-84">
          <mxGeometry relative="1" as="geometry" />
        </mxCell>
        <mxCell id="j9lvFV2EmUe2_3ZarSQt-62" value="Plug &amp; Play" style="swimlane;" vertex="1" parent="1">
          <mxGeometry x="690" y="50" width="200" height="110" as="geometry" />
        </mxCell>
        <mxCell id="j9lvFV2EmUe2_3ZarSQt-86" style="edgeStyle=orthogonalEdgeStyle;rounded=0;orthogonalLoop=1;jettySize=auto;html=1;exitX=0.5;exitY=1;exitDx=0;exitDy=0;entryX=0.862;entryY=0.004;entryDx=0;entryDy=0;entryPerimeter=0;fontSize=13;" edge="1" parent="1" source="j9lvFV2EmUe2_3ZarSQt-64" target="j9lvFV2EmUe2_3ZarSQt-84">
          <mxGeometry relative="1" as="geometry" />
        </mxCell>
        <mxCell id="j9lvFV2EmUe2_3ZarSQt-64" value="OTC" style="swimlane;" vertex="1" parent="1">
          <mxGeometry x="1030" y="50" width="200" height="110" as="geometry" />
        </mxCell>
        <mxCell id="j9lvFV2EmUe2_3ZarSQt-65" value="OTC Specifications" style="rounded=0;whiteSpace=wrap;html=1;fontStyle=1;fontSize=14;" vertex="1" parent="j9lvFV2EmUe2_3ZarSQt-64">
          <mxGeometry y="40" width="200" height="40" as="geometry" />
        </mxCell>
        <mxCell id="j9lvFV2EmUe2_3ZarSQt-74" value="PP Specifications" style="rounded=0;whiteSpace=wrap;html=1;fontStyle=1;fontSize=14;" vertex="1" parent="1">
          <mxGeometry x="690" y="95" width="200" height="40" as="geometry" />
        </mxCell>
        <mxCell id="j9lvFV2EmUe2_3ZarSQt-81" value="" style="rounded=0;whiteSpace=wrap;html=1;fontSize=13;fillColor=#f5f5f5;strokeColor=#666666;fontColor=#333333;" vertex="1" parent="1">
          <mxGeometry x="157.5" y="280" width="452.5" height="270" as="geometry" />
        </mxCell>
        <mxCell id="j9lvFV2EmUe2_3ZarSQt-55" value="RFQ" style="shape=datastore;whiteSpace=wrap;html=1;fontStyle=1;fontSize=14;" vertex="1" parent="1">
          <mxGeometry x="484" y="438" width="100" height="90" as="geometry" />
        </mxCell>
        <mxCell id="j9lvFV2EmUe2_3ZarSQt-54" value="Legder" style="shape=datastore;whiteSpace=wrap;html=1;fontStyle=1;fontSize=14;" vertex="1" parent="1">
          <mxGeometry x="484" y="298" width="100" height="90" as="geometry" />
        </mxCell>
        <mxCell id="j9lvFV2EmUe2_3ZarSQt-53" value="Configuration" style="shape=datastore;whiteSpace=wrap;html=1;fontStyle=1;fontSize=14;" vertex="1" parent="1">
          <mxGeometry x="325" y="298" width="100" height="90" as="geometry" />
        </mxCell>
        <mxCell id="j9lvFV2EmUe2_3ZarSQt-41" value="Balance" style="shape=datastore;whiteSpace=wrap;html=1;fontStyle=1;fontSize=13;" vertex="1" parent="1">
          <mxGeometry x="180" y="298" width="100" height="90" as="geometry" />
        </mxCell>
        <mxCell id="j9lvFV2EmUe2_3ZarSQt-57" value="Settings" style="shape=datastore;whiteSpace=wrap;html=1;fontStyle=1;fontSize=14;" vertex="1" parent="1">
          <mxGeometry x="180" y="438" width="100" height="90" as="geometry" />
        </mxCell>
        <mxCell id="j9lvFV2EmUe2_3ZarSQt-56" value="User" style="shape=datastore;whiteSpace=wrap;html=1;fontStyle=1;fontSize=14;" vertex="1" parent="1">
          <mxGeometry x="325" y="438" width="100" height="90" as="geometry" />
        </mxCell>
        <mxCell id="j9lvFV2EmUe2_3ZarSQt-84" value="" style="rounded=0;whiteSpace=wrap;html=1;fontSize=13;" vertex="1" parent="1">
          <mxGeometry x="740" y="190" width="460" height="425" as="geometry" />
        </mxCell>
        <mxCell id="j9lvFV2EmUe2_3ZarSQt-61" value="Balance" style="shape=datastore;whiteSpace=wrap;html=1;fontStyle=1;fontSize=13;" vertex="1" parent="1">
          <mxGeometry x="768" y="377" width="100" height="90" as="geometry" />
        </mxCell>
        <mxCell id="j9lvFV2EmUe2_3ZarSQt-68" value="Configuration" style="shape=datastore;whiteSpace=wrap;html=1;fontStyle=1;fontSize=14;" vertex="1" parent="1">
          <mxGeometry x="913" y="377" width="100" height="90" as="geometry" />
        </mxCell>
        <mxCell id="j9lvFV2EmUe2_3ZarSQt-69" value="Legder" style="shape=datastore;whiteSpace=wrap;html=1;fontStyle=1;fontSize=14;" vertex="1" parent="1">
          <mxGeometry x="1072" y="377" width="100" height="90" as="geometry" />
        </mxCell>
        <mxCell id="j9lvFV2EmUe2_3ZarSQt-70" value="RFQ" style="shape=datastore;whiteSpace=wrap;html=1;fontStyle=1;fontSize=14;" vertex="1" parent="1">
          <mxGeometry x="1072" y="499" width="100" height="90" as="geometry" />
        </mxCell>
        <mxCell id="j9lvFV2EmUe2_3ZarSQt-71" value="User" style="shape=datastore;whiteSpace=wrap;html=1;fontStyle=1;fontSize=14;" vertex="1" parent="1">
          <mxGeometry x="913" y="499" width="100" height="90" as="geometry" />
        </mxCell>
        <mxCell id="j9lvFV2EmUe2_3ZarSQt-72" value="Settings" style="shape=datastore;whiteSpace=wrap;html=1;fontStyle=1;fontSize=14;" vertex="1" parent="1">
          <mxGeometry x="768" y="499" width="100" height="90" as="geometry" />
        </mxCell>
        <mxCell id="j9lvFV2EmUe2_3ZarSQt-75" value="Core" style="swimlane;startSize=23;" vertex="1" parent="1">
          <mxGeometry x="865" y="200" width="200" height="150" as="geometry" />
        </mxCell>
        <mxCell id="j9lvFV2EmUe2_3ZarSQt-63" value="User Feature" style="rounded=0;whiteSpace=wrap;html=1;fontStyle=1;fontSize=14;" vertex="1" parent="j9lvFV2EmUe2_3ZarSQt-75">
          <mxGeometry y="40" width="200" height="40" as="geometry" />
        </mxCell>
        <mxCell id="j9lvFV2EmUe2_3ZarSQt-66" value="RFQ Feature" style="rounded=0;whiteSpace=wrap;html=1;fontStyle=1;fontSize=14;" vertex="1" parent="1">
          <mxGeometry x="863" y="290" width="200" height="40" as="geometry" />
        </mxCell>
      </root>
    </mxGraphModel>
  </diagram>
</mxfile>
